# Blender 4.4.1
# www.blender.org
mtllib Ladder.mtl
o Cylinder.002
v 0.003578 0.076145 -1.340875
v 0.003578 0.076145 0.029008
v 0.047082 0.058125 -1.340875
v 0.047082 0.058125 0.029008
v 0.065101 0.014621 -1.340875
v 0.065101 0.014621 0.029008
v 0.047082 -0.028883 -1.340875
v 0.047082 -0.028883 0.029008
v 0.003578 -0.046903 -1.340875
v 0.003578 -0.046903 0.029008
v -0.039926 -0.028883 -1.340875
v -0.039926 -0.028883 0.029008
v -0.057946 0.014621 -1.340875
v -0.057946 0.014621 0.029008
v -0.039926 0.058125 -1.340875
v -0.039926 0.058125 0.029008
v 0.000000 -0.486608 -0.107855
v 0.000000 4.403090 -0.107855
v 0.076265 -0.486608 -0.076265
v 0.076265 4.403090 -0.076265
v 0.107855 -0.486608 0.000000
v 0.107855 4.403090 0.000000
v 0.076265 -0.486608 0.076265
v 0.076265 4.403090 0.076265
v 0.000000 -0.486608 0.107855
v 0.000000 4.403090 0.107855
v -0.076265 -0.486608 0.076265
v -0.076265 4.403090 0.076265
v -0.107855 -0.486608 0.000000
v -0.107855 4.403090 0.000000
v -0.076265 -0.486608 -0.076265
v -0.076265 4.403090 -0.076265
v 0.000000 -0.486608 -1.423077
v 0.000000 4.403090 -1.423077
v 0.076265 -0.486608 -1.391487
v 0.076265 4.403090 -1.391487
v 0.107855 -0.486608 -1.315222
v 0.107855 4.403090 -1.315221
v 0.076265 -0.486608 -1.238956
v 0.076265 4.403090 -1.238956
v 0.000000 -0.486608 -1.207366
v 0.000000 4.403090 -1.207366
v -0.076265 -0.486608 -1.238956
v -0.076265 4.403090 -1.238956
v -0.107855 -0.486608 -1.315222
v -0.107855 4.403090 -1.315221
v -0.076265 -0.486608 -1.391487
v -0.076265 4.403090 -1.391487
v 0.003578 0.528109 -1.340875
v 0.003578 0.528109 0.029008
v 0.047082 0.510089 -1.340875
v 0.047082 0.510089 0.029008
v 0.065101 0.466586 -1.340875
v 0.065101 0.466586 0.029008
v 0.047082 0.423082 -1.340875
v 0.047082 0.423082 0.029008
v 0.003578 0.405062 -1.340875
v 0.003578 0.405062 0.029008
v -0.039926 0.423082 -1.340875
v -0.039926 0.423082 0.029008
v -0.057946 0.466586 -1.340875
v -0.057946 0.466586 0.029008
v -0.039926 0.510089 -1.340875
v -0.039926 0.510089 0.029008
v 0.003578 0.995689 -1.340875
v 0.003578 0.995689 0.029008
v 0.047082 0.977669 -1.340875
v 0.047082 0.977669 0.029008
v 0.065101 0.934165 -1.340875
v 0.065101 0.934165 0.029008
v 0.047082 0.890661 -1.340875
v 0.047082 0.890661 0.029008
v 0.003578 0.872642 -1.340875
v 0.003578 0.872642 0.029008
v -0.039926 0.890661 -1.340875
v -0.039926 0.890661 0.029008
v -0.057946 0.934165 -1.340875
v -0.057946 0.934165 0.029008
v -0.039926 0.977669 -1.340875
v -0.039926 0.977669 0.029008
v 0.003578 1.463269 -1.340875
v 0.003578 1.463269 0.029008
v 0.047082 1.445249 -1.340875
v 0.047082 1.445249 0.029008
v 0.065101 1.401745 -1.340875
v 0.065101 1.401745 0.029008
v 0.047082 1.358241 -1.340875
v 0.047082 1.358241 0.029008
v 0.003578 1.340221 -1.340875
v 0.003578 1.340221 0.029008
v -0.039926 1.358241 -1.340875
v -0.039926 1.358241 0.029008
v -0.057946 1.401745 -1.340875
v -0.057946 1.401745 0.029008
v -0.039926 1.445249 -1.340875
v -0.039926 1.445249 0.029008
v 0.003578 1.930848 -1.340875
v 0.003578 1.930848 0.029008
v 0.047082 1.912828 -1.340875
v 0.047082 1.912828 0.029008
v 0.065101 1.869325 -1.340875
v 0.065101 1.869325 0.029008
v 0.047082 1.825821 -1.340875
v 0.047082 1.825821 0.029008
v 0.003578 1.807801 -1.340875
v 0.003578 1.807801 0.029008
v -0.039926 1.825821 -1.340875
v -0.039926 1.825821 0.029008
v -0.057946 1.869325 -1.340875
v -0.057946 1.869325 0.029008
v -0.039926 1.912828 -1.340875
v -0.039926 1.912828 0.029008
v 0.003578 2.398428 -1.340875
v 0.003578 2.398428 0.029008
v 0.047082 2.380408 -1.340875
v 0.047082 2.380408 0.029008
v 0.065101 2.336904 -1.340875
v 0.065101 2.336904 0.029008
v 0.047082 2.293400 -1.340875
v 0.047082 2.293400 0.029008
v 0.003578 2.275380 -1.340875
v 0.003578 2.275380 0.029008
v -0.039926 2.293400 -1.340875
v -0.039926 2.293400 0.029008
v -0.057946 2.336904 -1.340875
v -0.057946 2.336904 0.029008
v -0.039926 2.380408 -1.340875
v -0.039926 2.380408 0.029008
v 0.003578 2.866007 -1.340875
v 0.003578 2.866007 0.029008
v 0.047082 2.847987 -1.340875
v 0.047082 2.847987 0.029008
v 0.065101 2.804484 -1.340875
v 0.065101 2.804484 0.029008
v 0.047082 2.760980 -1.340875
v 0.047082 2.760980 0.029008
v 0.003578 2.742960 -1.340875
v 0.003578 2.742960 0.029008
v -0.039926 2.760980 -1.340875
v -0.039926 2.760980 0.029008
v -0.057946 2.804484 -1.340875
v -0.057946 2.804484 0.029008
v -0.039926 2.847987 -1.340875
v -0.039926 2.847987 0.029008
v 0.003578 3.333587 -1.340875
v 0.003578 3.333587 0.029008
v 0.047082 3.315567 -1.340875
v 0.047082 3.315567 0.029008
v 0.065101 3.272063 -1.340875
v 0.065101 3.272063 0.029008
v 0.047082 3.228559 -1.340875
v 0.047082 3.228559 0.029008
v 0.003578 3.210540 -1.340875
v 0.003578 3.210540 0.029008
v -0.039926 3.228559 -1.340875
v -0.039926 3.228559 0.029008
v -0.057946 3.272063 -1.340875
v -0.057946 3.272063 0.029008
v -0.039926 3.315567 -1.340875
v -0.039926 3.315567 0.029008
v 0.003578 3.801167 -1.340875
v 0.003578 3.801167 0.029008
v 0.047082 3.783147 -1.340875
v 0.047082 3.783147 0.029008
v 0.065101 3.739643 -1.340875
v 0.065101 3.739643 0.029008
v 0.047082 3.696139 -1.340875
v 0.047082 3.696139 0.029008
v 0.003578 3.678119 -1.340875
v 0.003578 3.678119 0.029008
v -0.039926 3.696139 -1.340875
v -0.039926 3.696139 0.029008
v -0.057946 3.739643 -1.340875
v -0.057946 3.739643 0.029008
v -0.039926 3.783147 -1.340875
v -0.039926 3.783147 0.029008
v 0.003578 4.268746 -1.340875
v 0.003578 4.268746 0.029008
v 0.047082 4.250727 -1.340875
v 0.047082 4.250727 0.029008
v 0.065101 4.207223 -1.340875
v 0.065101 4.207223 0.029008
v 0.047082 4.163719 -1.340875
v 0.047082 4.163719 0.029008
v 0.003578 4.145700 -1.340875
v 0.003578 4.145700 0.029008
v -0.039926 4.163719 -1.340875
v -0.039926 4.163719 0.029008
v -0.057946 4.207223 -1.340875
v -0.057946 4.207223 0.029008
v -0.039926 4.250727 -1.340875
v -0.039926 4.250727 0.029008
vn -0.0000 0.9793 -0.2026
vn -0.0000 0.9793 0.2026
vn 0.6924 0.6924 -0.2026
vn 0.6924 0.6924 0.2026
vn 0.9793 -0.0000 -0.2026
vn 0.9793 -0.0000 0.2026
vn 0.6924 -0.6924 -0.2026
vn 0.6924 -0.6924 0.2026
vn -0.0000 -0.9793 -0.2026
vn -0.0000 -0.9793 0.2026
vn -0.6924 -0.6924 -0.2026
vn -0.6924 -0.6924 0.2026
vn -0.9793 -0.0000 -0.2026
vn -0.9793 -0.0000 0.2026
vn -0.6924 0.6924 -0.2026
vn -0.6924 0.6924 0.2026
vn -0.0000 -0.9650 -0.2622
vn -0.0000 0.9650 -0.2622
vn 0.3334 -0.9092 -0.2494
vn 0.3334 0.9092 -0.2494
vn 0.8307 -0.5567 -0.0000
vn 0.8307 0.5567 -0.0000
vn 0.3334 -0.9092 0.2494
vn 0.3334 0.9092 0.2494
vn -0.0000 -0.9650 0.2622
vn -0.0000 0.9650 0.2622
vn -0.3334 -0.9092 0.2494
vn -0.3334 0.9092 0.2494
vn -0.8307 -0.5567 -0.0000
vn -0.8307 0.5567 -0.0000
vn -0.3334 -0.9092 -0.2494
vn -0.3334 0.9092 -0.2494
vt 1.000000 0.500000
vt 1.000000 1.000000
vt 0.875000 1.000000
vt 0.875000 0.500000
vt 0.750000 1.000000
vt 0.750000 0.500000
vt 0.625000 1.000000
vt 0.625000 0.500000
vt 0.500000 1.000000
vt 0.500000 0.500000
vt 0.375000 1.000000
vt 0.375000 0.500000
vt 0.250000 1.000000
vt 0.250000 0.500000
vt 0.419706 0.419706
vt 0.250000 0.490000
vt 0.080294 0.419706
vt 0.010000 0.250000
vt 0.080294 0.080294
vt 0.250000 0.010000
vt 0.419706 0.080294
vt 0.490000 0.250000
vt 0.125000 1.000000
vt 0.125000 0.500000
vt 0.000000 1.000000
vt 0.000000 0.500000
vt 0.750000 0.490000
vt 0.919706 0.419706
vt 0.990000 0.250000
vt 0.919706 0.080294
vt 0.750000 0.010000
vt 0.580294 0.080294
vt 0.510000 0.250000
vt 0.580294 0.419706
s 1
f 1/1/1 2/2/2 4/3/4 3/4/3
f 3/4/3 4/3/4 6/5/6 5/6/5
f 5/6/5 6/5/6 8/7/8 7/8/7
f 7/8/7 8/7/8 10/9/10 9/10/9
f 9/10/9 10/9/10 12/11/12 11/12/11
f 11/12/11 12/11/12 14/13/14 13/14/13
f 4/15/4 2/16/2 16/17/16 14/18/14 12/19/12 10/20/10 8/21/8 6/22/6
f 13/14/13 14/13/14 16/23/16 15/24/15
f 15/24/15 16/23/16 2/25/2 1/26/1
f 1/27/1 3/28/3 5/29/5 7/30/7 9/31/9 11/32/11 13/33/13 15/34/15
f 17/1/17 18/2/18 20/3/20 19/4/19
f 19/4/19 20/3/20 22/5/22 21/6/21
f 21/6/21 22/5/22 24/7/24 23/8/23
f 23/8/23 24/7/24 26/9/26 25/10/25
f 25/10/25 26/9/26 28/11/28 27/12/27
f 27/12/27 28/11/28 30/13/30 29/14/29
f 20/15/20 18/16/18 32/17/32 30/18/30 28/19/28 26/20/26 24/21/24 22/22/22
f 29/14/29 30/13/30 32/23/32 31/24/31
f 31/24/31 32/23/32 18/25/18 17/26/17
f 17/27/17 19/28/19 21/29/21 23/30/23 25/31/25 27/32/27 29/33/29 31/34/31
f 33/1/17 34/2/18 36/3/20 35/4/19
f 35/4/19 36/3/20 38/5/22 37/6/21
f 37/6/21 38/5/22 40/7/24 39/8/23
f 39/8/23 40/7/24 42/9/26 41/10/25
f 41/10/25 42/9/26 44/11/28 43/12/27
f 43/12/27 44/11/28 46/13/30 45/14/29
f 36/15/20 34/16/18 48/17/32 46/18/30 44/19/28 42/20/26 40/21/24 38/22/22
f 45/14/29 46/13/30 48/23/32 47/24/31
f 47/24/31 48/23/32 34/25/18 33/26/17
f 33/27/17 35/28/19 37/29/21 39/30/23 41/31/25 43/32/27 45/33/29 47/34/31
f 49/1/1 50/2/2 52/3/4 51/4/3
f 51/4/3 52/3/4 54/5/6 53/6/5
f 53/6/5 54/5/6 56/7/8 55/8/7
f 55/8/7 56/7/8 58/9/10 57/10/9
f 57/10/9 58/9/10 60/11/12 59/12/11
f 59/12/11 60/11/12 62/13/14 61/14/13
f 52/15/4 50/16/2 64/17/16 62/18/14 60/19/12 58/20/10 56/21/8 54/22/6
f 61/14/13 62/13/14 64/23/16 63/24/15
f 63/24/15 64/23/16 50/25/2 49/26/1
f 49/27/1 51/28/3 53/29/5 55/30/7 57/31/9 59/32/11 61/33/13 63/34/15
f 65/1/1 66/2/2 68/3/4 67/4/3
f 67/4/3 68/3/4 70/5/6 69/6/5
f 69/6/5 70/5/6 72/7/8 71/8/7
f 71/8/7 72/7/8 74/9/10 73/10/9
f 73/10/9 74/9/10 76/11/12 75/12/11
f 75/12/11 76/11/12 78/13/14 77/14/13
f 68/15/4 66/16/2 80/17/16 78/18/14 76/19/12 74/20/10 72/21/8 70/22/6
f 77/14/13 78/13/14 80/23/16 79/24/15
f 79/24/15 80/23/16 66/25/2 65/26/1
f 65/27/1 67/28/3 69/29/5 71/30/7 73/31/9 75/32/11 77/33/13 79/34/15
f 81/1/1 82/2/2 84/3/4 83/4/3
f 83/4/3 84/3/4 86/5/6 85/6/5
f 85/6/5 86/5/6 88/7/8 87/8/7
f 87/8/7 88/7/8 90/9/10 89/10/9
f 89/10/9 90/9/10 92/11/12 91/12/11
f 91/12/11 92/11/12 94/13/14 93/14/13
f 84/15/4 82/16/2 96/17/16 94/18/14 92/19/12 90/20/10 88/21/8 86/22/6
f 93/14/13 94/13/14 96/23/16 95/24/15
f 95/24/15 96/23/16 82/25/2 81/26/1
f 81/27/1 83/28/3 85/29/5 87/30/7 89/31/9 91/32/11 93/33/13 95/34/15
f 97/1/1 98/2/2 100/3/4 99/4/3
f 99/4/3 100/3/4 102/5/6 101/6/5
f 101/6/5 102/5/6 104/7/8 103/8/7
f 103/8/7 104/7/8 106/9/10 105/10/9
f 105/10/9 106/9/10 108/11/12 107/12/11
f 107/12/11 108/11/12 110/13/14 109/14/13
f 100/15/4 98/16/2 112/17/16 110/18/14 108/19/12 106/20/10 104/21/8 102/22/6
f 109/14/13 110/13/14 112/23/16 111/24/15
f 111/24/15 112/23/16 98/25/2 97/26/1
f 97/27/1 99/28/3 101/29/5 103/30/7 105/31/9 107/32/11 109/33/13 111/34/15
f 113/1/1 114/2/2 116/3/4 115/4/3
f 115/4/3 116/3/4 118/5/6 117/6/5
f 117/6/5 118/5/6 120/7/8 119/8/7
f 119/8/7 120/7/8 122/9/10 121/10/9
f 121/10/9 122/9/10 124/11/12 123/12/11
f 123/12/11 124/11/12 126/13/14 125/14/13
f 116/15/4 114/16/2 128/17/16 126/18/14 124/19/12 122/20/10 120/21/8 118/22/6
f 125/14/13 126/13/14 128/23/16 127/24/15
f 127/24/15 128/23/16 114/25/2 113/26/1
f 113/27/1 115/28/3 117/29/5 119/30/7 121/31/9 123/32/11 125/33/13 127/34/15
f 129/1/1 130/2/2 132/3/4 131/4/3
f 131/4/3 132/3/4 134/5/6 133/6/5
f 133/6/5 134/5/6 136/7/8 135/8/7
f 135/8/7 136/7/8 138/9/10 137/10/9
f 137/10/9 138/9/10 140/11/12 139/12/11
f 139/12/11 140/11/12 142/13/14 141/14/13
f 132/15/4 130/16/2 144/17/16 142/18/14 140/19/12 138/20/10 136/21/8 134/22/6
f 141/14/13 142/13/14 144/23/16 143/24/15
f 143/24/15 144/23/16 130/25/2 129/26/1
f 129/27/1 131/28/3 133/29/5 135/30/7 137/31/9 139/32/11 141/33/13 143/34/15
f 145/1/1 146/2/2 148/3/4 147/4/3
f 147/4/3 148/3/4 150/5/6 149/6/5
f 149/6/5 150/5/6 152/7/8 151/8/7
f 151/8/7 152/7/8 154/9/10 153/10/9
f 153/10/9 154/9/10 156/11/12 155/12/11
f 155/12/11 156/11/12 158/13/14 157/14/13
f 148/15/4 146/16/2 160/17/16 158/18/14 156/19/12 154/20/10 152/21/8 150/22/6
f 157/14/13 158/13/14 160/23/16 159/24/15
f 159/24/15 160/23/16 146/25/2 145/26/1
f 145/27/1 147/28/3 149/29/5 151/30/7 153/31/9 155/32/11 157/33/13 159/34/15
f 161/1/1 162/2/2 164/3/4 163/4/3
f 163/4/3 164/3/4 166/5/6 165/6/5
f 165/6/5 166/5/6 168/7/8 167/8/7
f 167/8/7 168/7/8 170/9/10 169/10/9
f 169/10/9 170/9/10 172/11/12 171/12/11
f 171/12/11 172/11/12 174/13/14 173/14/13
f 164/15/4 162/16/2 176/17/16 174/18/14 172/19/12 170/20/10 168/21/8 166/22/6
f 173/14/13 174/13/14 176/23/16 175/24/15
f 175/24/15 176/23/16 162/25/2 161/26/1
f 161/27/1 163/28/3 165/29/5 167/30/7 169/31/9 171/32/11 173/33/13 175/34/15
f 177/1/1 178/2/2 180/3/4 179/4/3
f 179/4/3 180/3/4 182/5/6 181/6/5
f 181/6/5 182/5/6 184/7/8 183/8/7
f 183/8/7 184/7/8 186/9/10 185/10/9
f 185/10/9 186/9/10 188/11/12 187/12/11
f 187/12/11 188/11/12 190/13/14 189/14/13
f 180/15/4 178/16/2 192/17/16 190/18/14 188/19/12 186/20/10 184/21/8 182/22/6
f 189/14/13 190/13/14 192/23/16 191/24/15
f 191/24/15 192/23/16 178/25/2 177/26/1
f 177/27/1 179/28/3 181/29/5 183/30/7 185/31/9 187/32/11 189/33/13 191/34/15
