# Blender 4.2.2 LTS
# www.blender.org
mtllib Lamp.mtl
o Cube
v 0.919241 -0.528845 -0.603623
v 0.919241 -0.448087 -0.554875
v 1.000000 -0.528845 -0.554875
v 0.919241 -0.471740 -0.589345
v 0.965867 -0.482219 -0.583019
v 0.976346 -0.471740 -0.554875
v 0.976346 -0.528845 -0.589345
v 0.919241 -0.943374 -0.554875
v 0.919241 -0.862615 -0.603623
v 1.000000 -0.862615 -0.554875
v 0.919241 -0.919720 -0.589345
v 0.965867 -0.909241 -0.583019
v 0.976346 -0.862615 -0.589345
v 0.976346 -0.919720 -0.554875
v 1.000000 -0.528845 0.554875
v 0.919241 -0.448087 0.554875
v 0.919241 -0.528845 0.603623
v 0.976346 -0.471740 0.554875
v 0.965867 -0.482219 0.583019
v 0.919241 -0.471740 0.589345
v 0.976346 -0.528845 0.589345
v 1.000000 -0.862615 0.554875
v 0.919241 -0.862615 0.603623
v 0.919241 -0.943374 0.554875
v 0.976346 -0.862615 0.589345
v 0.965867 -0.909241 0.583019
v 0.919241 -0.919720 0.589345
v 0.976346 -0.919720 0.554875
v -0.919241 -0.528845 -0.603623
v -1.000000 -0.528845 -0.554875
v -0.919241 -0.448087 -0.554875
v -0.976346 -0.528845 -0.589345
v -0.965867 -0.482219 -0.583019
v -0.976346 -0.471740 -0.554875
v -0.919241 -0.471740 -0.589345
v -1.000000 -0.862615 -0.554875
v -0.919241 -0.862615 -0.603623
v -0.919241 -0.943374 -0.554875
v -0.976346 -0.862615 -0.589345
v -0.965867 -0.909241 -0.583019
v -0.919241 -0.919720 -0.589345
v -0.976346 -0.919720 -0.554875
v -1.000000 -0.528845 0.554875
v -0.919241 -0.528845 0.603623
v -0.919241 -0.448087 0.554875
v -0.976346 -0.528845 0.589345
v -0.965867 -0.482219 0.583019
v -0.919241 -0.471740 0.589345
v -0.976346 -0.471740 0.554875
v -0.919241 -0.943374 0.554875
v -0.919241 -0.862615 0.603623
v -1.000000 -0.862615 0.554875
v -0.919241 -0.919720 0.589345
v -0.965867 -0.909241 0.583019
v -0.976346 -0.862615 0.589345
v -0.976346 -0.919720 0.554875
v 0.000000 -0.536394 -0.244320
v 0.211587 -0.536394 -0.122160
v 0.211587 -0.536394 0.122160
v 0.000000 -0.536394 0.244320
v -0.211587 -0.536394 0.122160
v -0.211587 -0.536394 -0.122160
v 0.531950 0.778714 -0.307121
v 0.000000 0.778714 -0.614243
v 0.531950 0.778714 0.307121
v 0.000000 0.778714 0.614243
v -0.531950 0.778714 0.307121
v -0.531950 0.778714 -0.307121
v 0.816568 1.216247 -0.471445
v 0.000000 1.216247 -0.942891
v 0.816568 1.216247 0.471445
v 0.000000 1.216247 0.942891
v -0.816567 1.216247 0.471445
v -0.816567 1.216247 -0.471445
v 0.773676 1.599087 -0.446682
v 0.816568 1.556196 -0.471445
v 0.804005 1.586525 -0.464192
v 0.000000 1.556196 -0.942891
v 0.000000 1.599087 -0.893364
v 0.000000 1.586525 -0.928385
v 0.773676 1.599087 0.446682
v 0.816568 1.556196 0.471445
v 0.804005 1.586525 0.464192
v 0.000000 1.599087 0.893364
v 0.000000 1.556196 0.942891
v 0.000000 1.586525 0.928385
v -0.773676 1.599087 0.446682
v -0.816567 1.556196 0.471445
v -0.804005 1.586525 0.464192
v -0.773676 1.599087 -0.446682
v -0.816567 1.556196 -0.471445
v -0.804005 1.586525 -0.464192
v 0.000000 0.491828 -0.244320
v 0.000000 0.613913 -0.320906
v 0.000000 0.560333 -0.266751
v 0.277912 0.613913 -0.160453
v 0.211587 0.491828 -0.122160
v 0.231014 0.560333 -0.133376
v 0.277912 0.613913 0.160453
v 0.211587 0.491828 0.122160
v 0.231014 0.560333 0.133376
v 0.000000 0.613913 0.320906
v 0.000000 0.491828 0.244320
v 0.000000 0.560333 0.266751
v -0.277912 0.613913 0.160453
v -0.211587 0.491828 0.122160
v -0.231014 0.560333 0.133376
v -0.277912 0.613913 -0.160453
v -0.211587 0.491828 -0.122160
v -0.231014 0.560333 -0.133376
vn 0.1106 0.1106 -0.9877
vn 0.1745 0.9412 -0.2891
vn 0.9412 0.1745 -0.2891
vn 0.1270 0.5126 -0.8492
vn 0.4591 0.4591 -0.7606
vn 0.6791 0.6791 -0.2787
vn 0.5126 0.1270 -0.8492
vn 0.1745 -0.9412 -0.2891
vn 0.1106 -0.1106 -0.9877
vn 0.9412 -0.1745 -0.2891
vn 0.1270 -0.5126 -0.8492
vn 0.4591 -0.4591 -0.7606
vn 0.5126 -0.1270 -0.8492
vn 0.6791 -0.6791 -0.2787
vn 0.9412 0.1745 0.2891
vn 0.1745 0.9412 0.2891
vn 0.1106 0.1106 0.9877
vn 0.6791 0.6791 0.2787
vn 0.4591 0.4591 0.7606
vn 0.1270 0.5126 0.8492
vn 0.5126 0.1270 0.8492
vn 0.9412 -0.1745 0.2891
vn 0.1106 -0.1106 0.9877
vn 0.1745 -0.9412 0.2891
vn 0.5126 -0.1270 0.8492
vn 0.4591 -0.4591 0.7606
vn 0.1270 -0.5126 0.8492
vn 0.6791 -0.6791 0.2787
vn -0.1106 0.1106 -0.9877
vn -0.9412 0.1745 -0.2891
vn -0.1745 0.9412 -0.2891
vn -0.5126 0.1270 -0.8492
vn -0.4591 0.4591 -0.7606
vn -0.6791 0.6791 -0.2787
vn -0.1270 0.5126 -0.8492
vn -0.9412 -0.1745 -0.2891
vn -0.1106 -0.1106 -0.9877
vn -0.1745 -0.9412 -0.2891
vn -0.5126 -0.1270 -0.8492
vn -0.4591 -0.4591 -0.7606
vn -0.1270 -0.5126 -0.8492
vn -0.6791 -0.6791 -0.2787
vn -0.9412 0.1745 0.2891
vn -0.1106 0.1106 0.9877
vn -0.1745 0.9412 0.2891
vn -0.5126 0.1270 0.8492
vn -0.4591 0.4591 0.7606
vn -0.1270 0.5126 0.8492
vn -0.6791 0.6791 0.2787
vn -0.1745 -0.9412 0.2891
vn -0.1106 -0.1106 0.9877
vn -0.9412 -0.1745 0.2891
vn -0.1270 -0.5126 0.8492
vn -0.4591 -0.4591 0.7606
vn -0.5126 -0.1270 0.8492
vn -0.6791 -0.6791 0.2787
vn -0.0000 -0.3946 -0.9188
vn 0.6633 -0.5827 -0.4695
vn 0.6633 -0.5827 0.4695
vn -0.0000 -0.3946 0.9188
vn -0.6633 -0.5827 0.4695
vn -0.6633 -0.5827 -0.4695
vn 0.5825 -0.7243 -0.3689
vn -0.0000 -0.6860 -0.7276
vn 0.5825 -0.7243 0.3689
vn -0.0000 -0.6860 0.7276
vn -0.5825 -0.7243 0.3689
vn -0.5825 -0.7243 -0.3689
vn 0.7682 -0.2861 -0.5727
vn -0.0000 -0.2349 -0.9720
vn 0.7682 -0.2861 0.5727
vn -0.0000 -0.2349 0.9720
vn -0.7682 -0.2861 0.5727
vn -0.7682 -0.2861 -0.5727
vn 0.1950 0.9766 -0.0903
vn 0.7864 0.2063 -0.5823
vn 0.6104 0.6859 -0.3962
vn -0.0000 0.1805 -0.9836
vn -0.0000 0.9671 -0.2542
vn -0.0000 0.6026 -0.7981
vn 0.1950 0.9766 0.0903
vn 0.7864 0.2063 0.5823
vn 0.6104 0.6859 0.3962
vn -0.0000 0.9671 0.2542
vn -0.0000 0.1805 0.9836
vn -0.0000 0.6026 0.7981
vn -0.1950 0.9766 0.0903
vn -0.7864 0.2063 0.5823
vn -0.6104 0.6859 0.3962
vn -0.1950 0.9766 -0.0903
vn -0.7864 0.2063 -0.5823
vn -0.6104 0.6859 -0.3962
vn -0.0000 -0.1712 -0.9852
vn -0.0000 -0.8299 -0.5580
vn -0.0000 -0.5752 -0.8180
vn 0.4907 -0.8136 -0.3120
vn 0.8192 -0.1624 -0.5501
vn 0.7028 -0.5478 -0.4539
vn 0.4907 -0.8136 0.3120
vn 0.8192 -0.1624 0.5501
vn 0.7028 -0.5478 0.4539
vn -0.0000 -0.8299 0.5580
vn -0.0000 -0.1712 0.9852
vn -0.0000 -0.5752 0.8180
vn -0.4907 -0.8136 0.3120
vn -0.8192 -0.1624 0.5501
vn -0.7028 -0.5478 0.4539
vn -0.4907 -0.8136 -0.3120
vn -0.8192 -0.1624 -0.5501
vn -0.7028 -0.5478 -0.4539
vt 0.135095 0.510095
vt 0.364905 0.510095
vt 0.364905 0.739905
vt 0.135095 0.739905
vt 0.415764 0.010095
vt 0.584236 0.010095
vt 0.584236 0.239905
vt 0.415764 0.239905
vt 0.415764 0.760095
vt 0.584236 0.760095
vt 0.584236 0.989905
vt 0.415764 0.989905
vt 0.635095 0.510095
vt 0.864905 0.510095
vt 0.864905 0.739905
vt 0.635095 0.739905
vt 0.415764 0.510095
vt 0.584236 0.510095
vt 0.584236 0.739905
vt 0.415764 0.739905
vt 0.584236 0.489905
vt 0.625000 0.489905
vt 0.619257 0.500000
vt 0.584236 0.500000
vt 0.625000 0.510095
vt 0.635095 0.500000
vt 0.584236 0.500000
vt 0.364905 0.500000
vt 0.379321 0.501422
vt 0.375000 0.510095
vt 0.415764 0.489905
vt 0.415764 0.500000
vt 0.375000 0.489905
vt 0.625000 0.739905
vt 0.620679 0.748578
vt 0.584236 0.750000
vt 0.635095 0.750000
vt 0.584236 0.750000
vt 0.625000 0.760095
vt 0.415764 0.750000
vt 0.380743 0.750000
vt 0.375000 0.739905
vt 0.375000 0.760095
vt 0.364905 0.750000
vt 0.584236 0.260095
vt 0.584236 0.250000
vt 0.607771 0.250000
vt 0.625000 0.260095
vt 0.625000 0.239905
vt 0.625000 0.245733
vt 0.584236 0.250000
vt 0.864905 0.500000
vt 0.870733 0.500000
vt 0.875000 0.510095
vt 0.415764 0.250000
vt 0.392229 0.250000
vt 0.375000 0.239905
vt 0.415764 0.260095
vt 0.375000 0.260095
vt 0.375000 0.254267
vt 0.125000 0.510095
vt 0.125000 0.504267
vt 0.135095 0.500000
vt 0.584236 0.000000
vt 0.607771 0.000000
vt 0.625000 0.010095
vt 0.625000 0.989905
vt 0.625000 0.995733
vt 0.584236 1.000000
vt 0.875000 0.739905
vt 0.875000 0.745733
vt 0.864905 0.750000
vt 0.135095 0.750000
vt 0.129267 0.750000
vt 0.125000 0.739905
vt 0.415764 1.000000
vt 0.392229 1.000000
vt 0.375000 0.989905
vt 0.375000 0.010095
vt 0.375000 0.004267
vt 0.415764 0.000000
vt 0.166667 0.500000
vt 0.166667 0.964300
vt -0.000000 0.964300
vt -0.000000 0.500000
vt 0.666667 1.000000
vt 0.833333 1.000000
vt 0.500000 1.000000
vt 0.333333 1.000000
vt 0.333333 0.500000
vt 0.333333 0.964300
vt 0.166667 0.964300
vt 0.166667 1.000000
vt -0.000000 1.000000
vt 0.750000 0.490000
vt 0.957846 0.370000
vt 0.957846 0.130000
vt 0.750000 0.010000
vt 0.542154 0.130000
vt 0.542154 0.370000
vt 0.666667 0.500000
vt 0.666667 0.964300
vt 0.500000 0.964300
vt 0.500000 0.500000
vt 1.000000 0.500000
vt 1.000000 0.964300
vt 0.833333 0.964300
vt 0.833333 0.500000
vt 0.500000 0.964300
vt 0.333333 0.964300
vt 0.833333 0.964300
vt 0.666667 0.964300
vt 1.000000 1.000000
vt 0.446929 0.363697
vt 0.250000 0.477394
vt 0.053071 0.363697
vt 0.053071 0.136303
vt 0.250000 0.022606
vt 0.446929 0.136303
vt 0.166667 1.000000
vt 0.833333 1.000000
vt 0.998718 1.000000
vt 0.834615 1.000000
vt 0.456247 0.370923
vt 0.251599 0.489077
vt 0.832051 1.000000
vt 0.667949 1.000000
vt 0.457846 0.131846
vt 0.457846 0.368154
vt 0.665385 1.000000
vt 0.501282 1.000000
vt 0.251599 0.010923
vt 0.456247 0.129077
vt 0.498718 1.000000
vt 0.334615 1.000000
vt 0.043753 0.129077
vt 0.248401 0.010923
vt 0.332051 1.000000
vt 0.167949 1.000000
vt 0.042154 0.368154
vt 0.042154 0.131846
vt 0.165385 1.000000
vt 0.001282 1.000000
vt 0.248401 0.489077
vt 0.043753 0.370923
vt 0.833333 1.000000
s 1
usemtl Material
f 38/1/38 8/2/8 24/3/24 50/4/50
f 52/5/52 43/6/43 30/7/30 36/8/36
f 23/9/23 17/10/17 44/11/44 51/12/51
f 2/13/2 31/14/31 45/15/45 16/16/16
f 10/17/10 3/18/3 15/19/15 22/20/22
f 1/21/1 4/22/4 5/23/5 7/24/7
f 2/13/2 6/25/6 5/23/5 4/26/4
f 3/18/3 7/27/7 5/23/5 6/25/6
f 8/2/8 11/28/11 12/29/12 14/30/14
f 9/31/9 13/32/13 12/29/12 11/33/11
f 10/17/10 14/30/14 12/29/12 13/32/13
f 15/19/15 18/34/18 19/35/19 21/36/21
f 16/16/16 20/37/20 19/35/19 18/34/18
f 17/10/17 21/38/21 19/35/19 20/39/20
f 22/20/22 25/40/25 26/41/26 28/42/28
f 23/9/23 27/43/27 26/41/26 25/40/25
f 24/3/24 28/42/28 26/41/26 27/44/27
f 29/45/29 32/46/32 33/47/33 35/48/35
f 30/7/30 34/49/34 33/50/33 32/51/32
f 31/14/31 35/52/35 33/53/33 34/54/34
f 36/8/36 39/55/39 40/56/40 42/57/42
f 37/58/37 41/59/41 40/60/40 39/55/39
f 38/1/38 42/61/42 40/62/40 41/63/41
f 43/6/43 46/64/46 47/65/47 49/66/49
f 44/11/44 48/67/48 47/68/47 46/69/46
f 45/15/45 49/70/49 47/71/47 48/72/48
f 50/4/50 53/73/53 54/74/54 56/75/56
f 51/12/51 55/76/55 54/77/54 53/78/53
f 52/5/52 56/79/56 54/80/54 55/81/55
f 38/1/38 50/4/50 56/75/56 42/61/42
f 42/57/42 56/79/56 52/5/52 36/8/36
f 8/2/8 38/1/38 41/63/41 11/28/11
f 11/33/11 41/59/41 37/58/37 9/31/9
f 3/18/3 10/17/10 13/32/13 7/24/7
f 7/24/7 13/32/13 9/31/9 1/21/1
f 51/12/51 44/11/44 46/69/46 55/76/55
f 55/81/55 46/64/46 43/6/43 52/5/52
f 17/10/17 23/9/23 25/40/25 21/36/21
f 21/36/21 25/40/25 22/20/22 15/19/15
f 29/45/29 37/58/37 39/55/39 32/51/32
f 32/51/32 39/55/39 36/8/36 30/7/30
f 16/16/16 45/15/45 48/72/48 20/37/20
f 20/39/20 48/67/48 44/11/44 17/10/17
f 2/13/2 16/16/16 18/34/18 6/25/6
f 6/25/6 18/34/18 15/19/15 3/18/3
f 50/4/50 24/3/24 27/44/27 53/73/53
f 53/78/53 27/43/27 23/9/23 51/12/51
f 45/15/45 31/14/31 34/54/34 49/70/49
f 49/66/49 34/49/34 30/7/30 43/6/43
f 31/14/31 2/13/2 4/26/4 35/52/35
f 35/48/35 4/22/4 1/21/1 29/45/29
f 24/3/24 8/2/8 14/30/14 28/42/28
f 28/42/28 14/30/14 10/17/10 22/20/22
f 37/58/37 29/45/29 1/21/1 9/31/9
f 62/82/62 109/83/109 93/84/93 57/85/57
f 99/86/99 96/87/96 63/87/63 65/86/65
f 102/88/102 99/86/99 65/86/65 66/88/66
f 105/89/105 102/88/102 66/88/66 67/89/67
f 61/90/61 106/91/106 109/92/109 62/82/62
f 108/93/108 105/89/105 67/89/67 68/93/68
f 94/94/94 108/93/108 68/93/68 64/94/64
f 57/95/57 58/96/58 59/97/59 60/98/60 61/99/61 62/100/62
f 64/94/64 68/93/68 74/93/74 70/94/70
f 59/101/59 100/102/100 103/103/103 60/104/60
f 57/105/57 93/106/93 97/107/97 58/108/58
f 60/104/60 103/109/103 106/110/106 61/90/61
f 58/108/58 97/111/97 100/112/100 59/101/59
f 67/89/67 66/88/66 72/88/72 73/89/73
f 65/86/65 63/87/63 69/87/69 71/86/71
f 68/93/68 67/89/67 73/89/73 74/93/74
f 66/88/66 65/86/65 71/86/71 72/88/72
f 63/87/63 64/113/64 70/113/70 69/87/69
f 71/86/71 69/87/69 76/87/76 82/86/82
f 73/89/73 72/88/72 85/88/85 88/89/88
f 75/114/75 79/115/79 90/116/90 87/117/87 84/118/84 81/119/81
f 72/88/72 71/86/71 82/86/82 85/88/85
f 74/93/74 73/89/73 88/89/88 91/120/91
f 70/94/70 74/93/74 91/93/91 78/94/78
f 76/121/76 78/113/78 80/122/80 77/123/77
f 77/124/77 80/125/80 79/115/79 75/114/75
f 82/86/82 76/87/76 77/126/77 83/127/83
f 83/128/83 77/129/77 75/114/75 81/119/81
f 85/88/85 82/86/82 83/130/83 86/131/86
f 86/132/86 83/133/83 81/119/81 84/118/84
f 88/89/88 85/88/85 86/134/86 89/135/89
f 89/136/89 86/137/86 84/118/84 87/117/87
f 91/120/91 88/89/88 89/138/89 92/139/92
f 92/140/92 89/141/89 87/117/87 90/116/90
f 78/94/78 91/93/91 92/142/92 80/143/80
f 80/144/80 92/145/92 90/116/90 79/115/79
f 69/87/69 70/113/70 78/113/78 76/121/76
f 97/107/97 93/106/93 95/113/95 98/87/98
f 98/87/98 95/113/95 94/113/94 96/146/96
f 100/112/100 97/111/97 98/87/98 101/86/101
f 101/86/101 98/87/98 96/87/96 99/86/99
f 103/103/103 100/102/100 101/86/101 104/88/104
f 104/88/104 101/86/101 99/86/99 102/88/102
f 106/110/106 103/109/103 104/88/104 107/89/107
f 107/89/107 104/88/104 102/88/102 105/89/105
f 109/92/109 106/91/106 107/89/107 110/93/110
f 110/93/110 107/89/107 105/89/105 108/93/108
f 93/84/93 109/83/109 110/93/110 95/94/95
f 95/94/95 110/93/110 108/93/108 94/94/94
f 96/146/96 94/113/94 64/113/64 63/87/63
