# Blender 4.2.2 LTS
# www.blender.org
mtllib Stream.mtl
o Cylinder
v 0.000000 -1.118510 0.017472
v 0.000000 1.118510 0.017472
v 0.013546 -1.118510 0.010893
v 0.013546 1.118510 0.010893
v 0.016892 -1.118510 -0.003888
v 0.016892 1.118510 -0.003888
v 0.007517 -1.118510 -0.015741
v 0.007517 1.118510 -0.015741
v -0.007517 -1.118510 -0.015741
v -0.007517 1.118510 -0.015741
v -0.016892 -1.118510 -0.003888
v -0.016892 1.118510 -0.003888
v -0.013546 -1.118510 0.010893
v -0.013546 1.118510 0.010893
vn 0.4368 -0.0000 0.8995
vn 0.9753 -0.0000 0.2208
vn 0.7844 -0.0000 -0.6203
vn -0.0000 -0.0000 -1.0000
vn -0.7844 -0.0000 -0.6203
vn -0.0000 1.0000 -0.0000
vn -0.9753 -0.0000 0.2208
vn -0.4368 -0.0000 0.8995
vn -0.0000 -1.0000 -0.0000
vt 1.000000 0.500000
vt 1.000000 1.000000
vt 0.857143 1.000000
vt 0.857143 0.500000
vt 0.714286 1.000000
vt 0.714286 0.500000
vt 0.571429 1.000000
vt 0.571429 0.500000
vt 0.428571 1.000000
vt 0.428571 0.500000
vt 0.285714 1.000000
vt 0.285714 0.500000
vt 0.437640 0.399638
vt 0.250000 0.490000
vt 0.062360 0.399638
vt 0.016017 0.196595
vt 0.145868 0.033767
vt 0.354132 0.033767
vt 0.483983 0.196595
vt 0.142857 1.000000
vt 0.142857 0.500000
vt 0.000000 1.000000
vt 0.000000 0.500000
vt 0.750000 0.490000
vt 0.937640 0.399638
vt 0.983983 0.196595
vt 0.854132 0.033767
vt 0.645868 0.033767
vt 0.516017 0.196595
vt 0.562360 0.399638
s 0
f 1/1/1 3/4/1 4/3/1 2/2/1
f 3/4/2 5/6/2 6/5/2 4/3/2
f 5/6/3 7/8/3 8/7/3 6/5/3
f 7/8/4 9/10/4 10/9/4 8/7/4
f 9/10/5 11/12/5 12/11/5 10/9/5
f 4/13/6 6/19/6 8/18/6 10/17/6 12/16/6 14/15/6 2/14/6
f 11/12/7 13/21/7 14/20/7 12/11/7
f 13/21/8 1/23/8 2/22/8 14/20/8
f 1/24/9 13/30/9 11/29/9 9/28/9 7/27/9 5/26/9 3/25/9
